<?xml version="1.0" encoding="UTF-8" standalone="no"?>
<!-- Created with Inkscape (http://www.inkscape.org/) -->

<svg
   xmlns:dc="http://purl.org/dc/elements/1.1/"
   xmlns:cc="http://creativecommons.org/ns#"
   xmlns:rdf="http://www.w3.org/1999/02/22-rdf-syntax-ns#"
   xmlns:svg="http://www.w3.org/2000/svg"
   xmlns="http://www.w3.org/2000/svg"
   xmlns:xlink="http://www.w3.org/1999/xlink"
   xmlns:sodipodi="http://sodipodi.sourceforge.net/DTD/sodipodi-0.dtd"
   xmlns:inkscape="http://www.inkscape.org/namespaces/inkscape"
   id="svg2"
   sodipodi:version="0.32"
   inkscape:version="0.48+devel r10184"
   width="455.84375"
   height="1091.375"
   version="1.0"
   sodipodi:docname="pla_wallpaper.svg"
   inkscape:output_extension="org.inkscape.output.svg.inkscape">
  <metadata
     id="metadata7">
    <rdf:RDF>
      <cc:Work
         rdf:about="">
        <dc:format>image/svg+xml</dc:format>
        <dc:type
           rdf:resource="http://purl.org/dc/dcmitype/StillImage" />
        <dc:title></dc:title>
      </cc:Work>
    </rdf:RDF>
  </metadata>
  <defs
     id="defs5">
    <linearGradient
       id="linearGradient4368">
      <stop
         id="stop4370"
         offset="0"
         style="stop-color:#474747;stop-opacity:1;" />
      <stop
         style="stop-color:#000000;stop-opacity:1;"
         offset="1"
         id="stop4376" />
    </linearGradient>
    <linearGradient
       id="linearGradient3227">
      <stop
         style="stop-color:#bcbcbc;stop-opacity:1;"
         offset="0"
         id="stop3229" />
      <stop
         id="stop3235"
         offset="1"
         style="stop-color:#dfdfdf;stop-opacity:1;" />
    </linearGradient>
    <filter
       inkscape:collect="always"
       x="-0.17425948"
       width="1.348519"
       y="-0.32704028"
       height="1.6540805"
       id="filter4557"
       color-interpolation-filters="sRGB">
      <feGaussianBlur
         inkscape:collect="always"
         stdDeviation="6.7842804"
         id="feGaussianBlur4559" />
    </filter>
    <filter
       inkscape:collect="always"
       x="-0.25610456"
       width="1.5122091"
       y="-0.095335387"
       height="1.1906708"
       id="filter4617"
       color-interpolation-filters="sRGB">
      <feGaussianBlur
         inkscape:collect="always"
         stdDeviation="6.745963"
         id="feGaussianBlur4619" />
    </filter>
    <filter
       inkscape:collect="always"
       x="-0.090833776"
       width="1.1816676"
       y="-0.2456855"
       height="1.491371"
       id="filter4923"
       color-interpolation-filters="sRGB">
      <feGaussianBlur
         inkscape:collect="always"
         stdDeviation="2.469895"
         id="feGaussianBlur4925" />
    </filter>
    <linearGradient
       inkscape:collect="always"
       xlink:href="#linearGradient3227"
       id="linearGradient6454"
       gradientUnits="userSpaceOnUse"
       gradientTransform="matrix(1.6872241,0,0,1.1317257,-1212.1603,-285.94558)"
       x1="786.16321"
       y1="742.25751"
       x2="902.1178"
       y2="513.15063" />
    <linearGradient
       inkscape:collect="always"
       xlink:href="#linearGradient3227"
       id="linearGradient6456"
       gradientUnits="userSpaceOnUse"
       gradientTransform="matrix(1.0689158,0,0,0.514348,-735.16923,636.48346)"
       x1="768.08368"
       y1="610.18414"
       x2="984.11829"
       y2="610.18414" />
    <linearGradient
       inkscape:collect="always"
       xlink:href="#linearGradient3227"
       id="linearGradient6458"
       gradientUnits="userSpaceOnUse"
       gradientTransform="matrix(0.3190082,0,0,0.3375949,111.63983,793.94588)"
       x1="768.08368"
       y1="610.18414"
       x2="984.11829"
       y2="610.18414" />
    <radialGradient
       inkscape:collect="always"
       xlink:href="#linearGradient3227"
       id="radialGradient6460"
       gradientUnits="userSpaceOnUse"
       gradientTransform="matrix(8.3049008,-3.0703738,0.4645616,1.2565697,-5370.6158,1852.5564)"
       cx="658.95001"
       cy="362.93094"
       fx="658.95001"
       fy="362.93094"
       r="46.718472" />
    <radialGradient
       inkscape:collect="always"
       xlink:href="#linearGradient4368"
       id="radialGradient6462"
       gradientUnits="userSpaceOnUse"
       gradientTransform="matrix(0.6249148,-0.3771113,0.5422836,0.8986234,106.72971,385.12336)"
       cx="905.74146"
       cy="429.66537"
       fx="905.74146"
       fy="429.66537"
       r="42.521336" />
    <radialGradient
       inkscape:collect="always"
       xlink:href="#linearGradient4368"
       id="radialGradient6464"
       gradientUnits="userSpaceOnUse"
       gradientTransform="matrix(0.4472434,-0.5330153,0.7660512,0.6427795,153.04727,632.25611)"
       cx="923.66852"
       cy="452.06503"
       fx="923.66852"
       fy="452.06503"
       r="42.521336" />
    <linearGradient
       inkscape:collect="always"
       xlink:href="#linearGradient4368"
       id="linearGradient6466"
       gradientUnits="userSpaceOnUse"
       spreadMethod="pad"
       x1="1043.6969"
       y1="391.8912"
       x2="933.99249"
       y2="472.47617" />
    <radialGradient
       inkscape:collect="always"
       xlink:href="#linearGradient3227"
       id="radialGradient6468"
       gradientUnits="userSpaceOnUse"
       gradientTransform="matrix(1,0,0,0.5546669,0,97.701184)"
       cx="930.08484"
       cy="219.38896"
       fx="930.08484"
       fy="219.38896"
       r="81.052467" />
    <radialGradient
       inkscape:collect="always"
       xlink:href="#linearGradient3227"
       id="radialGradient6470"
       gradientUnits="userSpaceOnUse"
       gradientTransform="matrix(0.8391559,-0.0290081,0.00108019,0.03124812,-649.22434,133.36568)"
       cx="1091.2548"
       cy="222.74667"
       fx="1091.2548"
       fy="222.74667"
       r="168.35284" />
    <radialGradient
       inkscape:collect="always"
       xlink:href="#linearGradient3227"
       id="radialGradient126"
       gradientUnits="userSpaceOnUse"
       gradientTransform="matrix(0.8391559,-0.0290081,0.00108019,0.03124812,-657.83201,86.77936)"
       cx="1091.2548"
       cy="222.74667"
       fx="1091.2548"
       fy="222.74667"
       r="168.35284" />
    <radialGradient
       inkscape:collect="always"
       xlink:href="#linearGradient3227"
       id="radialGradient156"
       gradientUnits="userSpaceOnUse"
       gradientTransform="matrix(8.3049008,-3.0703738,0.4645616,1.2565697,-5379.2235,1805.9701)"
       cx="658.95001"
       cy="362.93094"
       fx="658.95001"
       fy="362.93094"
       r="46.718472" />
    <linearGradient
       inkscape:collect="always"
       xlink:href="#linearGradient3227"
       id="linearGradient181"
       gradientUnits="userSpaceOnUse"
       gradientTransform="matrix(0.3190082,0,0,0.3375949,103.03216,747.35956)"
       x1="768.08368"
       y1="610.18414"
       x2="984.11829"
       y2="610.18414" />
    <linearGradient
       inkscape:collect="always"
       xlink:href="#linearGradient3227"
       id="linearGradient184"
       gradientUnits="userSpaceOnUse"
       gradientTransform="matrix(1.0689158,0,0,0.514348,-743.7769,589.89714)"
       x1="768.08368"
       y1="610.18414"
       x2="984.11829"
       y2="610.18414" />
    <linearGradient
       inkscape:collect="always"
       xlink:href="#linearGradient3227"
       id="linearGradient187"
       gradientUnits="userSpaceOnUse"
       gradientTransform="matrix(1.6872241,0,0,1.1317257,-1220.768,-332.5319)"
       x1="786.16321"
       y1="742.25751"
       x2="902.1178"
       y2="513.15063" />
    <radialGradient
       inkscape:collect="always"
       xlink:href="#linearGradient4368"
       id="radialGradient208"
       gradientUnits="userSpaceOnUse"
       gradientTransform="matrix(0.6249148,-0.3771113,0.5422836,0.8986234,106.72971,385.12336)"
       cx="905.74146"
       cy="429.66537"
       fx="905.74146"
       fy="429.66537"
       r="42.521336" />
    <radialGradient
       inkscape:collect="always"
       xlink:href="#linearGradient4368"
       id="radialGradient210"
       gradientUnits="userSpaceOnUse"
       gradientTransform="matrix(0.4472434,-0.5330153,0.7660512,0.6427795,153.04727,632.25611)"
       cx="923.66852"
       cy="452.06503"
       fx="923.66852"
       fy="452.06503"
       r="42.521336" />
    <linearGradient
       inkscape:collect="always"
       xlink:href="#linearGradient4368"
       id="linearGradient212"
       gradientUnits="userSpaceOnUse"
       spreadMethod="pad"
       x1="1043.6969"
       y1="391.8912"
       x2="933.99249"
       y2="472.47617" />
    <radialGradient
       inkscape:collect="always"
       xlink:href="#linearGradient3227"
       id="radialGradient214"
       gradientUnits="userSpaceOnUse"
       gradientTransform="matrix(1,0,0,0.5546669,0,97.701184)"
       cx="930.08484"
       cy="219.38896"
       fx="930.08484"
       fy="219.38896"
       r="81.052467" />
  </defs>
  <sodipodi:namedview
     inkscape:window-height="725"
     inkscape:window-width="1272"
     inkscape:pageshadow="2"
     inkscape:pageopacity="0.0"
     guidetolerance="10.0"
     gridtolerance="10.0"
     objecttolerance="10.0"
     borderopacity="1.0"
     bordercolor="#666666"
     pagecolor="#ffffff"
     id="base"
     showguides="true"
     inkscape:guide-bbox="true"
     inkscape:zoom="0.2975741"
     inkscape:cx="1235.3067"
     inkscape:cy="560.22066"
     inkscape:window-x="0"
     inkscape:window-y="26"
     inkscape:current-layer="svg2"
     width="1600px"
     height="1200px"
     showgrid="false"
     fit-margin-top="0"
     fit-margin-left="0"
     fit-margin-right="0"
     fit-margin-bottom="0"
     inkscape:window-maximized="0" />
  <text
     xml:space="preserve"
     style="font-size:12px;font-style:normal;font-weight:normal;fill:#000000;fill-opacity:1;stroke:none;font-family:Bitstream Vera Sans"
     x="622.95105"
     y="507.74677"
     id="text3261"><tspan
       sodipodi:role="line"
       x="622.95105"
       y="507.74677"
       id="tspan3267" /></text>
  <rect
     style="fill:#000000;fill-opacity:1;fill-rule:evenodd;stroke:#000000;stroke-width:12.90048027;stroke-linecap:round;stroke-linejoin:round;stroke-miterlimit:4;stroke-opacity:1;stroke-dasharray:none;stroke-dashoffset:0"
     id="rect3223"
     width="379.62781"
     height="1078.488"
     x="69.753754"
     y="6.4420547"
     ry="33.252171" />
  <rect
     style="fill:url(#linearGradient187);fill-opacity:1;fill-rule:evenodd;stroke:#e8e8e8;stroke-width:9.81104565;stroke-linecap:round;stroke-linejoin:round;stroke-miterlimit:4;stroke-opacity:1;stroke-dasharray:none;stroke-dashoffset:0"
     id="rect3225"
     width="352.51956"
     height="671.75201"
     x="81.150948"
     y="22.153198"
     ry="20.711597" />
  <rect
     style="fill:url(#linearGradient184);fill-opacity:1;fill-rule:evenodd;stroke:#e8e8e8;stroke-width:5.26451874;stroke-linecap:round;stroke-linejoin:round;stroke-miterlimit:4;stroke-opacity:1;stroke-dasharray:none;stroke-dashoffset:0"
     id="rect3237"
     width="223.33356"
     height="305.29865"
     x="81.0345"
     y="751.09485"
     ry="9.4130316" />
  <rect
     style="fill:url(#linearGradient181);fill-opacity:1;fill-rule:evenodd;stroke:#e8e8e8;stroke-width:2.3300066;stroke-linecap:round;stroke-linejoin:round;stroke-miterlimit:4;stroke-opacity:1;stroke-dasharray:none;stroke-dashoffset:0"
     id="rect3241"
     width="66.651825"
     height="200.38435"
     x="349.18948"
     y="853.16248"
     ry="6.1782918" />
  <rect
     style="fill:#e8e8e8;fill-opacity:1;fill-rule:evenodd;stroke:#160284;stroke-width:4.36072588;stroke-linecap:round;stroke-linejoin:round;stroke-miterlimit:4;stroke-opacity:1;stroke-dasharray:none;stroke-dashoffset:0"
     id="rect3245"
     width="319.14429"
     height="146.5862"
     x="95.681595"
     y="530.63141"
     ry="4.5195756" />
  <rect
     style="fill:#160284;fill-opacity:1;fill-rule:evenodd;stroke:#160284;stroke-width:4.69160318;stroke-linecap:round;stroke-linejoin:round;stroke-miterlimit:4;stroke-opacity:1;stroke-dasharray:none;stroke-dashoffset:0"
     id="rect3249"
     width="150.17899"
     height="142.29123"
     x="97.066513"
     y="532.90973"
     ry="0" />
  <text
     xml:space="preserve"
     style="font-size:25.04546356px;font-style:normal;font-weight:normal;line-height:89.99999762%;fill:#7c78b1;fill-opacity:1;stroke:none;font-family:Bitstream Vera Sans"
     x="340.01038"
     y="424.01904"
     id="text3251"
     sodipodi:linespacing="89.999998%"
     transform="scale(0.75193539,1.3299015)"><tspan
       sodipodi:role="line"
       id="tspan3253"
       x="340.01038"
       y="424.01904"
       style="font-size:19.98666px;font-style:normal;font-variant:normal;font-weight:normal;font-stretch:normal;text-align:start;line-height:89.99999762%;writing-mode:lr-tb;text-anchor:start;fill:#7c78b1;fill-opacity:1;font-family:D3 Mouldism Katakana">Ready to get</tspan><tspan
       sodipodi:role="line"
       x="340.01038"
       y="442.00705"
       id="tspan3255"
       style="font-size:19.98666px;font-style:normal;font-variant:normal;font-weight:normal;font-stretch:normal;text-align:start;line-height:89.99999762%;writing-mode:lr-tb;text-anchor:start;fill:#7c78b1;fill-opacity:1;font-family:D3 Mouldism Katakana">ripped off?</tspan><tspan
       sodipodi:role="line"
       x="340.01038"
       y="459.99503"
       id="tspan3257"
       style="font-size:19.98666px;font-style:normal;font-variant:normal;font-weight:normal;font-stretch:normal;text-align:start;line-height:89.99999762%;writing-mode:lr-tb;text-anchor:start;fill:#7c78b1;fill-opacity:1;font-family:D3 Mouldism Katakana">Just deposit</tspan><tspan
       sodipodi:role="line"
       x="340.01038"
       y="477.983"
       id="tspan3259"
       style="font-size:19.98666px;font-style:normal;font-variant:normal;font-weight:normal;font-stretch:normal;text-align:start;line-height:89.99999762%;writing-mode:lr-tb;text-anchor:start;fill:#7c78b1;fill-opacity:1;font-family:D3 Mouldism Katakana">your money!.</tspan><tspan
       sodipodi:role="line"
       x="340.01038"
       y="495.97104"
       style="font-size:19.98666px;font-style:normal;font-variant:normal;font-weight:normal;font-stretch:normal;text-align:start;line-height:89.99999762%;writing-mode:lr-tb;text-anchor:start;fill:#7c78b1;fill-opacity:1;font-family:D3 Mouldism Katakana"
       id="tspan3286">Alternately!</tspan></text>
  <g
     id="g3347"
     transform="matrix(1.8169691,0,0,1.8169691,-1479.1354,-477.07207)"
     style="stroke:#000000;stroke-width:1.10000002;stroke-miterlimit:4;stroke-opacity:1;stroke-dasharray:none">
    <path
       inkscape:connector-curvature="0"
       style="fill:#fefdfd;stroke:#000000;stroke-width:1.10000002;stroke-miterlimit:4;stroke-opacity:1;stroke-dasharray:none"
       d="m 878.40601,593.77332 c 0,-10.23106 0,-20.46212 0,-30.69318 20.46211,0 41.34394,-2.93799 63.48492,0.83943 0,20.46212 -2.09857,40.0848 -2.09857,60.54692 -20.46212,0 -40.92424,0 -61.38635,0 0,-10.23106 0,-20.46212 0,-30.69317 z"
       id="path3363"
       sodipodi:nodetypes="cccccc" />
    <path
       inkscape:connector-curvature="0"
       style="fill:#fda5a5;stroke:#000000;stroke-width:1.10000002;stroke-miterlimit:4;stroke-opacity:1;stroke-dasharray:none"
       d="m 903.10443,620.6817 c -1.04021,-1.60758 -0.69221,-3.60641 -0.75775,-5.42316 -6.80927,-0.10366 -13.64937,0.29138 -20.43178,-0.40448 -2.76528,-1.62574 -1.23398,-6.28325 -1.66221,-9.12633 -0.43823,-3.32161 0.85339,-6.29106 4.46554,-6.68571 3.18766,-1.24868 2.52609,-4.90699 3.5096,-7.41722 1.42869,-5.22633 -0.37208,-11.00483 1.76063,-16.11626 1.81655,-3.25375 6.03868,-2.98369 9.27379,-3.29746 1.13046,-0.0766 2.26092,-0.15329 3.39138,-0.22994 0.35048,-1.78281 0.0282,-3.85933 1.10788,-5.37649 3.1579,-0.90246 6.52148,-0.11108 9.75249,0.13751 1.5105,-0.345 1.02177,1.24231 1.19499,2.18981 0.1845,0.96799 -0.0581,2.36222 0.39506,3.06213 4.03963,0.40649 8.86751,-10e-4 11.65736,3.5132 3.41765,4.94497 1.75873,11.30283 3.29023,16.78148 0.91731,2.37151 0.0575,5.97893 3.19727,7.04325 0.85012,0.89942 3.5039,0.14929 3.18936,1.84088 -0.002,4.22953 0.52946,8.50399 -0.12149,12.69801 -1.92271,2.03242 -5.64302,0.98535 -8.3005,1.4599 -4.15654,0.10736 -8.31438,0.15552 -12.47154,0.23467 -0.20458,1.8416 -0.40919,3.68319 -0.61383,5.52478 -3.7154,0.0174 -7.47163,0.52767 -11.15649,-0.0824 l -0.40604,-0.14768 -0.26392,-0.17853 -3e-5,2e-5 z"
       id="path3361" />
    <path
       inkscape:connector-curvature="0"
       style="fill:#a5a5fd;stroke:#000000;stroke-width:1.10000002;stroke-miterlimit:4;stroke-opacity:1;stroke-dasharray:none"
       d="m 903.3399,619.82996 c -0.54656,-1.07098 0.81644,-2.32194 -0.8133,-1.93961 -0.53344,-1.04158 0.57263,-3.2597 -1.39531,-2.63181 -6.40434,-0.095 -12.83907,0.27751 -19.21639,-0.40448 -2.76528,-1.62574 -1.23398,-6.28325 -1.66221,-9.12633 -0.43823,-3.32161 0.85339,-6.29106 4.46554,-6.68571 3.18766,-1.24868 2.52609,-4.90699 3.5096,-7.41722 1.42869,-5.22633 -0.37208,-11.00483 1.76063,-16.11626 1.81655,-3.25375 6.03868,-2.98369 9.27379,-3.29746 1.13046,-0.0766 2.26092,-0.15329 3.39138,-0.22994 0.20463,-1.84159 0.40926,-3.68319 0.61389,-5.52478 2.52735,-0.0333 5.10623,-0.50031 7.59496,0.0489 2.18547,0.43038 4.30377,1.08638 3.83819,4.01764 0.21262,0.93473 -0.22434,2.54288 1.2691,2.14982 3.22917,0.36572 7.03614,-0.13258 9.36191,2.62517 3.60259,2.8684 3.03977,7.85387 3.5785,11.92985 0.48737,3.65274 0.24249,7.54195 1.73387,10.9659 1.58946,2.36411 6.11296,1.87157 5.12656,5.70056 0.0574,3.4808 0.0215,6.9624 0.0316,10.44357 -6.95712,0.20464 -13.91423,0.40925 -20.87134,0.61383 -0.20463,1.84159 -0.40926,3.68319 -0.61389,5.52478 -3.39966,0.017 -6.83086,0.48028 -10.2075,0.0201 -0.33751,-0.0885 -0.65786,-0.32456 -0.76962,-0.66654 z"
       id="path3359" />
    <path
       inkscape:connector-curvature="0"
       style="fill:#f1e50e;stroke:#000000;stroke-width:1.10000002;stroke-miterlimit:4;stroke-opacity:1;stroke-dasharray:none"
       d="m 903.4809,620.03992 c -0.94723,-1.70448 0.74125,-5.71314 -2.0451,-5.39035 -6.7558,-0.10395 -13.5116,-0.2079 -20.2674,-0.3118 0,-4.43742 0,-8.87484 0,-13.31226 3.30393,-0.83544 7.32026,-2.4478 7.24998,-6.52174 1.13972,-5.94475 0.38167,-12.14088 1.85353,-18.01484 1.51066,-3.24814 5.44998,-3.59151 8.59201,-3.60742 2.19236,-0.2369 5.33501,0.52209 4.67213,-2.70358 -0.008,-2.08548 0.24247,-3.80739 2.76413,-3.25773 2.43963,-0.43869 4.66367,0.94436 7.03001,0.0104 2.92114,0.96466 -0.41415,7.05763 3.97725,5.85259 3.65211,-0.14772 7.66303,0.91384 9.58242,4.30876 2.02848,3.12945 1.58556,7.03888 2.06224,10.58346 0.36401,3.58248 0.3738,7.34748 1.73776,10.71243 2.15684,1.75206 6.07794,2.39117 5.08174,6.12409 0.0745,3.27487 0.007,6.55062 0.0306,9.82587 -6.95711,0.20464 -13.91423,0.40925 -20.87134,0.61383 -0.68346,1.68062 0.48899,5.40754 -1.60011,5.53613 -3.20654,0.0358 -6.52094,0.59051 -9.65783,-0.17217 -0.13241,-0.0362 -0.13785,-0.17578 -0.19207,-0.27564 z"
       id="path3357" />
    <path
       inkscape:connector-curvature="0"
       style="fill:#fd5a5a;stroke:#000000;stroke-width:1.10000002;stroke-miterlimit:4;stroke-opacity:1;stroke-dasharray:none"
       d="m 903.4809,620.03992 c -0.5341,-1.66413 -0.19978,-3.9575 -0.69394,-5.36956 -7.20618,-0.11089 -14.41237,-0.22176 -21.61856,-0.33259 0,-4.43742 0,-8.87484 0,-13.31226 2.62726,-0.97313 6.15996,-1.53289 6.87584,-4.74221 1.52847,-6.30069 0.8128,-12.90158 2.012,-19.24525 1.00442,-3.04985 4.40108,-4.14414 7.33998,-4.05873 1.95681,-0.13236 3.91422,-0.25577 5.8713,-0.38429 0.20458,-1.8416 0.40919,-3.68319 0.61383,-5.52478 2.1411,0.0264 4.54661,-0.77745 6.47807,0.35952 -0.81802,3.32942 -3.50894,5.92723 -5.32598,8.7883 -1.59727,2.22476 -3.18307,4.45773 -4.75207,6.70252 3.11697,-0.14477 6.26255,-0.77297 9.36805,-0.30195 1.51883,1.93317 -1.86827,4.84291 -2.51108,7.08551 -1.61944,3.04808 -3.37223,6.03677 -4.79165,9.18385 3.69959,0.96848 7.80584,-0.24368 11.3945,1.22719 0.15408,2.6154 -2.47516,5.10318 -3.58128,7.60053 -0.90917,1.85606 -3.81866,5.86398 -2.90868,6.60285 6.07796,-5.97928 11.68672,-12.4442 17.03226,-19.0831 2.23668,-2.938 -3.66812,-1.81393 -5.36248,-2.07601 -1.87445,-0.2246 -8.32084,0.78439 -4.96655,-2.58787 2.17649,-3.27174 4.94036,-6.166 6.80814,-9.63014 -2.05434,-1.72416 -5.10065,-1.60376 -7.45794,-2.88635 -1.36921,-0.34314 0.74612,-1.50617 1.05754,-2.24475 1.40304,-2.23668 3.92947,-3.25902 6.5126,-2.83695 3.17295,0.4332 5.94378,3.173 7.00727,6.12111 1.36153,6.01879 0.83314,12.33836 2.38027,18.32233 0.65523,3.04899 5.57708,2.07927 5.4518,5.27652 0.16,3.87874 0.0603,7.76308 0.0881,11.64441 -6.95712,0.20464 -13.91423,0.40925 -20.87134,0.61383 -0.20463,1.84159 -0.40926,3.68319 -0.61389,5.52478 -3.50125,-0.009 -7.0643,0.5656 -10.51934,-0.0714 l -0.22709,-0.1628 -0.0897,-0.20227 -2e-5,2e-5 z"
       id="path3355" />
    <path
       inkscape:connector-curvature="0"
       style="fill:#5a59fc;stroke:#000000;stroke-width:1.10000002;stroke-miterlimit:4;stroke-opacity:1;stroke-dasharray:none"
       d="m 904.18829,619.53888 c 5.41099,-7.22263 11.79556,-13.66793 17.56391,-20.60753 0.67956,-1.63065 4.89539,-4.14835 3.13681,-5.47019 -3.7076,-0.7785 -7.69338,0.003 -11.28644,-1.2225 1.7167,-4.11408 5.49267,-7.10036 7.02446,-11.30016 -1.2107,-2.45505 -7.36752,-1.00928 -6.3306,-4.22717 1.97792,-3.09356 6.30805,-4.28262 9.35222,-1.99263 4.0634,2.27872 4.04318,7.45101 4.33415,11.50823 -0.22139,3.40195 1.16278,6.49842 1.39164,9.78712 0.15156,3.30669 3.4175,4.84034 6.16554,5.72606 -0.11719,3.99459 -0.23438,7.98918 -0.35156,11.98377 -6.95714,0.20463 -13.91427,0.40926 -20.8714,0.61389 -0.20465,1.84159 -0.40926,3.68318 -0.61383,5.52478 -3.07016,0.02 -6.18159,0.50228 -9.21983,-0.0353 l -0.2214,-0.13054 -0.0737,-0.15778 10e-6,-1e-5 z m -1.22772,-3.3454 c 0.3849,-1.4646 -0.42134,-1.75623 -1.73606,-1.54716 -6.68537,-0.10288 -13.37074,-0.20572 -20.05611,-0.30855 0,-4.43742 0,-8.87484 0,-13.31226 2.62726,-0.97313 6.15996,-1.53289 6.87584,-4.74221 1.52847,-6.30069 0.8128,-12.90158 2.012,-19.24525 1.00442,-3.04985 4.40108,-4.14414 7.33998,-4.05873 1.95681,-0.13236 3.91422,-0.25577 5.8713,-0.38429 0.20458,-1.8416 0.40919,-3.68319 0.61383,-5.52478 2.12146,0.018 4.40407,-0.64388 6.39519,0.17879 -0.88865,2.55468 -2.89182,4.76682 -4.36027,7.09255 -1.86909,2.74587 -3.94835,5.39795 -5.41117,8.38589 2.48343,1.36713 5.91077,-0.38114 8.74616,0.21716 0.9281,2.10861 -1.87904,4.84862 -2.65255,7.09277 -1.50665,2.8808 -3.23296,5.69932 -4.24038,8.80029 1.66653,2.12783 5.58884,0.57336 8.11519,1.10051 3.6886,-0.70878 2.85418,2.86192 1.18276,4.65595 -2.60574,4.04344 -4.65225,8.43503 -7.38873,12.38833 -0.90602,1.34865 -1.41237,0.24835 -1.30698,-0.78901 z"
       id="path3353" />
    <path
       inkscape:connector-curvature="0"
       style="fill:#fd0603;stroke:#000000;stroke-width:1.10000002;stroke-miterlimit:4;stroke-opacity:1;stroke-dasharray:none"
       d="m 904.18829,619.53888 c 5.41099,-7.22263 11.79556,-13.66793 17.56391,-20.60753 0.67956,-1.63065 4.89539,-4.14835 3.13681,-5.47019 -3.7076,-0.7785 -7.69338,0.003 -11.28644,-1.2225 1.7167,-4.11408 5.49267,-7.10036 7.02446,-11.30016 -1.2107,-2.45505 -7.36752,-1.00928 -6.3306,-4.22717 1.97792,-3.09356 6.30805,-4.28262 9.35222,-1.99263 4.0634,2.27872 4.04318,7.45101 4.33415,11.50823 -0.22139,3.40195 1.16278,6.49842 1.39164,9.78712 0.15156,3.30669 3.4175,4.84034 6.16554,5.72606 -0.11719,3.99459 -0.23438,7.98918 -0.35156,11.98377 -6.95714,0.20463 -13.91427,0.40926 -20.8714,0.61389 -0.20465,1.84159 -0.40926,3.68318 -0.61383,5.52478 -3.07016,0.02 -6.18159,0.50228 -9.21983,-0.0353 l -0.2214,-0.13054 -0.0737,-0.15778 10e-6,-1e-5 z m -0.61389,-4.82886 c -2.82668,-0.92271 -6.00227,-0.56351 -8.97232,-0.78304 -4.27309,-0.0777 -8.54654,-0.13464 -12.81979,-0.2031 -0.11704,-3.97848 -0.23404,-7.95695 -0.35102,-11.93543 2.89217,-1.25064 6.73474,-2.33689 7.33967,-5.90116 0.0502,-3.10249 1.70513,-5.84191 1.28625,-9.04758 0.19957,-3.80062 -0.42397,-8.04826 1.70519,-11.41935 1.96521,-1.88049 5.04098,-1.50125 7.5545,-1.89879 1.52149,-0.10424 3.04298,-0.20847 4.56447,-0.31271 0.3053,-1.72714 0.11788,-3.61455 0.9038,-5.20061 1.65584,-0.79176 6.85702,-1.3131 3.72162,1.51337 -2.94804,4.52969 -6.56905,8.67104 -8.87561,13.58407 1.88998,1.74 5.56227,0.0967 8.14024,0.41773 2.8831,-0.0637 -0.85597,3.60523 -1.13851,5.17492 -1.80778,3.68776 -4.13173,7.23177 -5.21241,11.20485 3.62566,1.21712 7.68879,0.0792 11.343,1.08303 -2.45311,4.73 -4.97579,9.50075 -8.19366,13.76425 -0.3125,0.41179 -1.08336,0.95463 -0.99542,-0.0404 z"
       id="path3351" />
    <path
       inkscape:connector-curvature="0"
       style="fill:#0404fb;stroke:#000000;stroke-width:1.10000002;stroke-miterlimit:4;stroke-opacity:1;stroke-dasharray:none"
       d="m 903.5744,614.71002 c -2.82668,-0.92271 -6.00227,-0.56351 -8.97232,-0.78304 -4.27309,-0.0777 -8.54654,-0.13464 -12.81979,-0.2031 -0.11704,-3.97848 -0.23404,-7.95695 -0.35102,-11.93543 2.89217,-1.25064 6.73474,-2.33689 7.33967,-5.90116 0.0502,-3.10249 1.70513,-5.84191 1.28625,-9.04758 0.19957,-3.80062 -0.42397,-8.04826 1.70519,-11.41935 1.96521,-1.88049 5.04098,-1.50125 7.5545,-1.89879 1.52149,-0.10424 3.04298,-0.20847 4.56447,-0.31271 0.3053,-1.72714 0.11788,-3.61455 0.9038,-5.20061 1.65584,-0.79176 6.85702,-1.3131 3.72162,1.51337 -2.94804,4.52969 -6.56905,8.67104 -8.87561,13.58407 1.88998,1.74 5.56227,0.0967 8.14024,0.41773 2.8831,-0.0637 -0.85597,3.60523 -1.13851,5.17492 -1.80778,3.68776 -4.13173,7.23177 -5.21241,11.20485 3.62566,1.21712 7.68879,0.0792 11.343,1.08303 -2.45311,4.73 -4.97579,9.50075 -8.19366,13.76425 -0.3125,0.41179 -1.08336,0.95463 -0.99542,-0.0404 z"
       id="path3349" />
  </g>
  <g
     id="g3335"
     transform="matrix(0.4518379,0,0,0.4518379,-202.93112,563.28116)">
    <path
       transform="matrix(4.2622477,0,0,2.8835734,-1727.1192,-1324.5826)"
       d="m 611.10267,726.40271 c 0,2.31801 -1.31539,4.19713 -2.938,4.19713 -1.62261,0 -2.93799,-1.87912 -2.93799,-4.19713 0,-2.31801 1.31538,-4.19713 2.93799,-4.19713 1.62261,0 2.938,1.87912 2.938,4.19713 z"
       sodipodi:ry="4.197134"
       sodipodi:rx="2.9379938"
       sodipodi:cy="726.40271"
       sodipodi:cx="608.16467"
       id="path3331"
       style="fill:#7c78b1;fill-opacity:1;fill-rule:evenodd;stroke:#000000;stroke-width:2.4000001;stroke-linecap:round;stroke-linejoin:round;stroke-miterlimit:4;stroke-opacity:1;stroke-dasharray:none;stroke-dashoffset:0"
       sodipodi:type="arc" />
    <rect
       y="739.65485"
       x="859.39429"
       height="58.278034"
       width="11.270135"
       id="rect3333"
       style="fill:#000000;fill-opacity:1;fill-rule:evenodd;stroke:#000000;stroke-width:8.75782776;stroke-linecap:round;stroke-linejoin:round;stroke-miterlimit:4;stroke-opacity:1;stroke-dasharray:none;stroke-dashoffset:0" />
  </g>
  <rect
     style="fill:none;stroke:#000000;stroke-width:3.4992764;stroke-linecap:round;stroke-linejoin:round;stroke-miterlimit:4;stroke-opacity:1;stroke-dasharray:none;stroke-dashoffset:0"
     id="rect3339"
     width="54.860611"
     height="189.0793"
     x="354.95612"
     y="859.58008"
     ry="6.0993328" />
  <rect
     style="fill:#000000;fill-opacity:1;fill-rule:evenodd;stroke:#000000;stroke-width:1.10000002;stroke-linecap:round;stroke-linejoin:round;stroke-miterlimit:4;stroke-opacity:1;stroke-dasharray:none;stroke-dashoffset:0;filter:url(#filter4557)"
     id="rect4493"
     width="92.336945"
     height="48.686752"
     x="610.26324"
     y="343.62411"
     ry="10.577603"
     transform="matrix(1.6537348,0,0,1.6537348,-820.61882,-364.63772)" />
  <rect
     style="fill:url(#radialGradient156);fill-opacity:1;fill-rule:evenodd;stroke:#828282;stroke-width:1.99866605;stroke-linecap:round;stroke-linejoin:round;stroke-miterlimit:4;stroke-opacity:1;stroke-dasharray:none;stroke-dashoffset:0"
     id="rect4495"
     width="167.77338"
     height="88.462326"
     x="178.00803"
     y="194.5639"
     ry="19.219179" />
  <rect
     style="fill:#160284;fill-opacity:1;fill-rule:evenodd;stroke:#000000;stroke-width:1.63683403;stroke-linecap:round;stroke-linejoin:round;stroke-miterlimit:4;stroke-opacity:1;stroke-dasharray:none;stroke-dashoffset:0"
     id="rect4569"
     width="328.28253"
     height="73.572037"
     x="95.465561"
     y="105.92068"
     ry="12.876111" />
  <rect
     style="fill:#686868;fill-opacity:1;fill-rule:evenodd;stroke:#000000;stroke-width:1.10000002;stroke-linecap:round;stroke-linejoin:round;stroke-miterlimit:4;stroke-opacity:1;stroke-dasharray:none;stroke-dashoffset:0;filter:url(#filter4617)"
     id="rect4571"
     width="62.11758"
     height="168.72478"
     x="626.21234"
     y="370.1424"
     ry="7.0865879"
     transform="matrix(1.8169691,0,0,1.8169691,-935.39713,-420.63922)" />
  <g
     id="g4482"
     transform="matrix(1.8169691,0,0,1.8169691,-1514.9779,-443.51741)">
    <path
       transform="translate(88.13981,-73.030128)"
       d="m 931.76369,442.25677 c 0,23.18013 -18.7912,41.97134 -41.97133,41.97134 -23.18013,0 -41.97134,-18.79121 -41.97134,-41.97134 0,-23.18012 18.79121,-41.97133 41.97134,-41.97133 23.18013,0 41.97133,18.79121 41.97133,41.97133 z"
       sodipodi:ry="41.971336"
       sodipodi:rx="41.971336"
       sodipodi:cy="442.25677"
       sodipodi:cx="889.79236"
       id="path3378"
       style="fill:url(#radialGradient208);fill-opacity:1;fill-rule:evenodd;stroke:#000000;stroke-width:1.10000002;stroke-linecap:round;stroke-linejoin:round;stroke-miterlimit:4;stroke-opacity:1;stroke-dasharray:none;stroke-dashoffset:0"
       sodipodi:type="arc" />
    <path
       transform="translate(88.100423,107.5121)"
       d="m 931.76369,442.25677 c 0,23.18013 -18.7912,41.97134 -41.97133,41.97134 -23.18013,0 -41.97134,-18.79121 -41.97134,-41.97134 0,-23.18012 18.79121,-41.97133 41.97134,-41.97133 23.18013,0 41.97133,18.79121 41.97133,41.97133 z"
       sodipodi:ry="41.971336"
       sodipodi:rx="41.971336"
       sodipodi:cy="442.25677"
       sodipodi:cx="889.79236"
       id="path3382"
       style="fill:url(#radialGradient210);fill-opacity:1;fill-rule:evenodd;stroke:#000000;stroke-width:1.10000002;stroke-linecap:round;stroke-linejoin:round;stroke-miterlimit:4;stroke-opacity:1;stroke-dasharray:none;stroke-dashoffset:0"
       sodipodi:type="arc" />
    <rect
       ry="10.577603"
       y="353.29102"
       x="952.76282"
       height="193.04126"
       width="48.659855"
       id="rect3380"
       style="fill:url(#linearGradient212);fill-opacity:1;fill-rule:evenodd;stroke:#000000;stroke-width:1.12689722;stroke-linecap:round;stroke-linejoin:round;stroke-miterlimit:4;stroke-opacity:1;stroke-dasharray:none;stroke-dashoffset:0" />
  </g>
  <text
     xml:space="preserve"
     style="font-size:21.80362892px;font-style:normal;font-weight:normal;line-height:125%;fill:#000000;fill-opacity:1;stroke:#000000;stroke-width:1.81696916px;stroke-linecap:butt;stroke-linejoin:miter;stroke-opacity:1;font-family:Bitstream Vera Sans"
     x="211.56273"
     y="128.9798"
     id="text4621"
     sodipodi:linespacing="125%"><tspan
       sodipodi:role="line"
       id="tspan4623"
       x="211.56273"
       y="128.9798"
       style="font-size:21.80362892px;font-style:normal;font-variant:normal;font-weight:normal;font-stretch:normal;text-align:start;line-height:125%;writing-mode:lr-tb;text-anchor:start;fill:#ffffff;fill-opacity:1;stroke:#000000;stroke-width:1.81696916;stroke-opacity:1;font-family:BigMummy">phone phreak</tspan></text>
  <rect
     style="fill:#ffffff;fill-opacity:1;fill-rule:evenodd;stroke:#000000;stroke-width:1.63527215;stroke-linecap:round;stroke-linejoin:round;stroke-miterlimit:4;stroke-opacity:1;stroke-dasharray:none;stroke-dashoffset:0"
     id="rect4710"
     width="12.672235"
     height="40.982548"
     x="388.44708"
     y="132.62521"
     ry="0.94367689" />
  <path
     sodipodi:type="arc"
     style="fill:#ffffff;fill-opacity:1;fill-rule:evenodd;stroke:#000000;stroke-width:1.10000002;stroke-linecap:round;stroke-linejoin:round;stroke-miterlimit:4;stroke-opacity:1;stroke-dasharray:none;stroke-dashoffset:0"
     id="path4625"
     sodipodi:cx="732.81958"
     sodipodi:cy="324.31732"
     sodipodi:rx="9.2336941"
     sodipodi:ry="9.2336941"
     d="m 742.05327,324.31732 a 9.2336941,9.2336941 0 1 1 -18.46738,0 9.2336941,9.2336941 0 1 1 18.46738,0 z"
     transform="matrix(1.8169691,0,0,1.8169691,-950.64925,-435.89134)" />
  <image
     sodipodi:absref="/media/tpol/archive_design/pla/telephone.gif"
     xlink:href="/media/tpol/archive_design/pla/telephone.gif"
     width="50.491032"
     height="49.162319"
     id="image4701"
     x="103.95578"
     y="116.60031" />
  <rect
     style="fill:none;stroke:#000000;stroke-width:3.25328541;stroke-linecap:round;stroke-linejoin:round;stroke-miterlimit:4;stroke-opacity:1;stroke-dasharray:none;stroke-dashoffset:0"
     id="rect4704"
     width="53.400574"
     height="51.87492"
     x="102.67999"
     y="115.82773"
     ry="5.6461496" />
  <text
     xml:space="preserve"
     style="font-size:30.53428841px;font-style:normal;font-weight:normal;line-height:125%;fill:#000000;fill-opacity:1;stroke:none;font-family:Bitstream Vera Sans"
     x="368.49622"
     y="163.28035"
     id="text4706"
     sodipodi:linespacing="125%"><tspan
       sodipodi:role="line"
       id="tspan4708"
       x="368.49622"
       y="163.28035"
       style="font-size:30.53428841px;font-style:normal;font-variant:normal;font-weight:normal;font-stretch:normal;text-align:start;line-height:125%;writing-mode:lr-tb;text-anchor:start;font-family:Care Bear Family">25</tspan></text>
  <path
     inkscape:connector-curvature="0"
     style="fill:none;stroke:#bd0000;stroke-width:5.63260412;stroke-linecap:butt;stroke-linejoin:miter;stroke-miterlimit:4;stroke-opacity:1;stroke-dasharray:none"
     d="m 364.08391,136.60585 35.07989,35.0799"
     id="path4637" />
  <g
     id="g4730"
     transform="matrix(1.8169691,0,0,1.8169691,-1392.9609,-377.93327)">
    <rect
       ry="5.058063"
       y="226.12181"
       x="820.13733"
       height="33.542233"
       width="36.060513"
       id="rect4712"
       style="fill:#ff2100;fill-opacity:1;fill-rule:evenodd;stroke:#000000;stroke-width:0.935;stroke-linecap:round;stroke-linejoin:round;stroke-miterlimit:4;stroke-opacity:1;stroke-dasharray:none;stroke-dashoffset:0" />
    <text
       id="text4714"
       y="235.79344"
       x="820.82861"
       style="font-size:12px;font-style:normal;font-weight:normal;fill:#000000;fill-opacity:1;stroke:none;font-family:Bitstream Vera Sans"
       xml:space="preserve"><tspan
         style="font-size:8px"
         y="235.79344"
         x="820.82861"
         id="tspan4716"
         sodipodi:role="line">1.</tspan><tspan
         id="tspan4718"
         style="font-size:8px"
         y="245.79344"
         x="820.82861"
         sodipodi:role="line">2.</tspan><tspan
         id="tspan4720"
         style="font-size:8px"
         y="255.79344"
         x="820.82861"
         sodipodi:role="line">3.</tspan></text>
    <text
       sodipodi:linespacing="125%"
       id="text4722"
       y="235.77557"
       x="827.67157"
       style="font-size:12px;font-style:normal;font-weight:normal;line-height:125%;fill:#ffffff;fill-opacity:1;stroke:none;font-family:Bitstream Vera Sans"
       xml:space="preserve"><tspan
         style="font-size:8px;font-family:Don"
         y="235.77557"
         x="827.67157"
         id="tspan4724"
         sodipodi:role="line">STOP</tspan><tspan
         id="tspan4726"
         style="font-size:8px;font-family:Don"
         y="245.77557"
         x="827.67157"
         sodipodi:role="line">LOOK</tspan><tspan
         id="tspan4728"
         style="font-size:8px;font-family:Don"
         y="255.77557"
         x="827.67157"
         sodipodi:role="line">redbox</tspan></text>
  </g>
  <rect
     style="fill:#ffffff;fill-opacity:1;fill-rule:evenodd;stroke:#000000;stroke-width:2.72199988;stroke-linecap:round;stroke-linejoin:miter;stroke-miterlimit:4;stroke-opacity:1;stroke-dasharray:none;stroke-dashoffset:0;filter:url(#filter4923)"
     id="rect4897"
     width="62.537292"
     height="21.405382"
     x="620.33636"
     y="254.6449"
     ry="6.047586"
     transform="matrix(1.6537348,0,0,1.1263081,-823.31335,-236.23007)" />
  <path
     sodipodi:type="arc"
     style="fill:url(#radialGradient214);fill-opacity:1;fill-rule:evenodd;stroke:#000000;stroke-width:17.00205421;stroke-linecap:round;stroke-linejoin:miter;stroke-miterlimit:4;stroke-opacity:1;stroke-dasharray:none;stroke-dashoffset:0"
     id="path4741"
     sodipodi:cx="930.08484"
     sodipodi:cy="219.38896"
     sodipodi:rx="80.584969"
     sodipodi:ry="76.387833"
     d="m 1010.6698,219.38896 a 80.584969,76.387833 0 1 1 -161.16993,0 80.584969,76.387833 0 1 1 161.16993,0 z"
     transform="matrix(0.2908937,0,0,0.2908937,-54.721895,-1.948439)" />
  <rect
     style="fill:url(#radialGradient126);fill-opacity:1;fill-rule:evenodd;stroke:#000000;stroke-width:4.94578981;stroke-linecap:round;stroke-linejoin:miter;stroke-miterlimit:4;stroke-opacity:1;stroke-dasharray:none;stroke-dashoffset:0"
     id="rect4743"
     width="97.673569"
     height="21.976553"
     x="209.30472"
     y="51.096252"
     ry="10.988276" />
  <text
     xml:space="preserve"
     style="font-size:21.80362892px;font-style:normal;font-weight:normal;fill:#000000;fill-opacity:1;stroke:none;font-family:Bitstream Vera Sans"
     x="237.49124"
     y="87.036469"
     id="text4927"><tspan
       sodipodi:role="line"
       id="tspan4929"
       x="237.49124"
       y="87.036469"
       style="font-size:7.26787663px">pull it all you want</tspan></text>
  <rect
     style="fill:#151515;fill-opacity:1;fill-rule:evenodd;stroke:#000000;stroke-width:3.31051779;stroke-linecap:round;stroke-linejoin:miter;stroke-miterlimit:4;stroke-opacity:1;stroke-dasharray:none;stroke-dashoffset:0"
     id="rect4931"
     width="7.6260629"
     height="65.584137"
     x="365.6091"
     y="29.078369"
     ry="3.8130314" />
  <flowRoot
     xml:space="preserve"
     id="flowRoot4933"
     style="font-size:4px"
     transform="matrix(1.8169691,0,0,1.8169691,-935.39713,-416.82619)"><flowRegion
       id="flowRegion4935"><rect
         id="rect4937"
         width="26.02223"
         height="35.255924"
         x="686.23138"
         y="247.50977"
         style="font-size:4px" /></flowRegion><flowPara
       id="flowPara4947"
       style="text-align:end;text-anchor:end">put in some  money!</flowPara><flowPara
       id="flowPara4953"
       style="text-align:end;text-anchor:end" /><flowPara
       id="flowPara4955"
       style="text-align:end;text-anchor:end">25</flowPara><flowPara
       id="flowPara4957"
       style="text-align:end;text-anchor:end">50</flowPara><flowPara
       id="flowPara4959"
       style="text-align:end;text-anchor:end">1.00</flowPara></flowRoot>  <path
     inkscape:connector-curvature="0"
     style="fill:none;stroke:#000000;stroke-width:15.69999981;stroke-linecap:round;stroke-linejoin:round;stroke-miterlimit:4;stroke-opacity:1;stroke-dasharray:15.7, 15.7;stroke-dashoffset:0"
     d="m 58.54647,591.67662 c -18.177108,-4.93746 -33.684278,11.13737 -40.353049,26.40481 -15.371966,31.00491 -10.954464,67.15912 -3.795115,99.738 6.245759,19.75223 20.908454,35.08849 30.358932,53.19815 24.802342,27.63806 61.892722,46.08918 99.586012,41.66292 20.2258,-1.2446 41.12742,-5.68731 57.24964,-18.6399 12.99892,-7.90979 25.27834,-17.52645 33.25269,-30.69901 12.72106,-15.0089 25.4692,-30.66582 31.33499,-49.78116 8.93263,-22.47745 12.30483,-46.75485 15.61207,-70.53368 -0.14377,-21.48829 -12.56585,-40.32419 -15.06834,-61.42325"
     id="path5105" />
</svg>
